<svg width="1200" height="900" viewBox="0 0 1200 900" fill="none" xmlns="http://www.w3.org/2000/svg">
  <rect width="1200" height="900" rx="48" fill="#F8FBFF"/>
  <rect x="24" y="24" width="1152" height="852" rx="40" fill="url(#bg)"/>
  <circle cx="978" cy="180" r="118" fill="#DBEAFE"/>
  <circle cx="226" cy="188" r="86" fill="#EFF6FF"/>
  <rect x="126" y="148" width="948" height="622" rx="36" fill="white" stroke="#BFDBFE" stroke-width="4"/>
  <rect x="176" y="202" width="848" height="120" rx="24" fill="#EFF6FF"/>
  <rect x="210" y="236" width="300" height="16" rx="8" fill="#2563EB" fill-opacity="0.18"/>
  <rect x="210" y="268" width="240" height="14" rx="7" fill="#94A3B8" fill-opacity="0.28"/>
  <rect x="818" y="228" width="152" height="52" rx="18" fill="#2563EB"/>
  <rect x="818" y="354" width="352" height="344" rx="30" fill="#F8FBFF" stroke="#DBEAFE" stroke-width="4"/>
  <rect x="860" y="390" width="170" height="18" rx="9" fill="#2563EB" fill-opacity="0.18"/>
  <rect x="860" y="422" width="220" height="14" rx="7" fill="#94A3B8" fill-opacity="0.28"/>
  <rect x="860" y="468" width="260" height="74" rx="22" fill="white" stroke="#DBEAFE" stroke-width="3"/>
  <rect x="860" y="566" width="260" height="74" rx="22" fill="white" stroke="#DBEAFE" stroke-width="3"/>
  <rect x="188" y="354" width="596" height="344" rx="30" fill="#F8FBFF" stroke="#DBEAFE" stroke-width="4"/>
  <rect x="228" y="392" width="184" height="18" rx="9" fill="#2563EB" fill-opacity="0.18"/>
  <rect x="228" y="424" width="240" height="14" rx="7" fill="#94A3B8" fill-opacity="0.28"/>
  <rect x="228" y="470" width="516" height="78" rx="24" fill="white" stroke="#DBEAFE" stroke-width="3"/>
  <rect x="228" y="572" width="516" height="78" rx="24" fill="white" stroke="#DBEAFE" stroke-width="3"/>
  <rect x="420" y="698" width="364" height="26" rx="13" fill="#DBEAFE"/>
  <rect x="290" y="724" width="624" height="20" rx="10" fill="#BFDBFE"/>

  <g transform="translate(310 318)">
    <ellipse cx="0" cy="242" rx="124" ry="22" fill="#D6E7FF"/>
    <path d="M-54 110C-54 63.6081 -16.3919 26 30 26H92C138.392 26 176 63.6081 176 110V202H-54V110Z" fill="#DBEAFE"/>
    <path d="M12 48C12 22.5949 32.5949 2 58 2H86C111.405 2 132 22.5949 132 48V82H12V48Z" fill="#1E3A8A"/>
    <circle cx="72" cy="100" r="48" fill="#F5C9AA"/>
    <path d="M24 94C24 57.5492 53.5492 28 90 28H98C134.451 28 164 57.5492 164 94V110H24V94Z" fill="#1E3A8A"/>
    <rect x="32" y="156" width="162" height="126" rx="38" fill="#2563EB"/>
    <rect x="-8" y="190" width="92" height="124" rx="30" fill="#2563EB"/>
    <rect x="142" y="190" width="92" height="124" rx="30" fill="#2563EB"/>
    <rect x="54" y="282" width="44" height="118" rx="20" fill="#1E3A8A"/>
    <rect x="114" y="282" width="44" height="118" rx="20" fill="#1E3A8A"/>
  </g>

  <g transform="translate(644 372)">
    <ellipse cx="0" cy="202" rx="88" ry="18" fill="#D6E7FF"/>
    <circle cx="0" cy="64" r="38" fill="#F5C9AA"/>
    <path d="M-42 58C-42 27.0721 -16.9279 2 14 2H18C48.9279 2 74 27.0721 74 58V72H-42V58Z" fill="#334155"/>
    <rect x="-56" y="110" width="112" height="118" rx="34" fill="#0EA5E9"/>
    <rect x="-88" y="140" width="56" height="110" rx="24" fill="#0EA5E9"/>
    <rect x="32" y="140" width="56" height="110" rx="24" fill="#0EA5E9"/>
    <rect x="-30" y="226" width="28" height="92" rx="14" fill="#1E3A8A"/>
    <rect x="6" y="226" width="28" height="92" rx="14" fill="#1E3A8A"/>
    <rect x="-34" y="132" width="66" height="42" rx="16" fill="white" fill-opacity="0.88"/>
  </g>

  <g transform="translate(884 392)">
    <ellipse cx="0" cy="188" rx="84" ry="18" fill="#D6E7FF"/>
    <circle cx="0" cy="62" r="36" fill="#F0C2A1"/>
    <path d="M-40 56C-40 25.0721 -14.9279 0 16 0H18C48.9279 0 74 25.0721 74 56V70H-40V56Z" fill="#0F172A"/>
    <rect x="-52" y="106" width="104" height="110" rx="30" fill="#3B82F6"/>
    <rect x="-82" y="138" width="54" height="98" rx="22" fill="#3B82F6"/>
    <rect x="28" y="138" width="54" height="98" rx="22" fill="#3B82F6"/>
    <rect x="-28" y="214" width="26" height="84" rx="13" fill="#1E3A8A"/>
    <rect x="6" y="214" width="26" height="84" rx="13" fill="#1E3A8A"/>
  </g>

  <g transform="translate(492 584)">
    <rect x="-84" y="-10" width="168" height="24" rx="12" fill="#93C5FD"/>
    <rect x="-104" y="10" width="208" height="18" rx="9" fill="#BFDBFE"/>
  </g>

  <defs>
    <linearGradient id="bg" x1="600" y1="24" x2="600" y2="876" gradientUnits="userSpaceOnUse">
      <stop stop-color="#EEF6FF"/>
      <stop offset="1" stop-color="#FFFFFF"/>
    </linearGradient>
  </defs>
</svg>
