<svg width="160" height="160" viewBox="0 0 160 160" fill="none" xmlns="http://www.w3.org/2000/svg">
  <rect width="160" height="160" rx="80" fill="#E0F2FE"/>
  <circle cx="80" cy="82" r="34" fill="#E6B38A"/>
  <path d="M46 74C46 50.804 64.804 32 88 32C106.526 32 122.249 43.9972 127.827 60.6466C117.662 58.1135 104.759 56.6667 91 56.6667C73.9464 56.6667 58.2084 58.8882 46.5967 62.6913C46.2033 66.3962 46 70.1581 46 74Z" fill="#0F172A"/>
  <path d="M51 77C62.8547 76.3392 75.1788 71.4251 84.7112 63.2568C92.4163 71.2888 103.155 76.2936 115 77V82C115 100.225 100.225 115 82 115C63.7746 115 49 100.225 49 82V77H51Z" fill="#E6B38A"/>
  <circle cx="70" cy="84" r="4" fill="#1E293B"/>
  <circle cx="94" cy="84" r="4" fill="#1E293B"/>
  <path d="M72 97C74.7647 99.5083 78.1546 101 82 101C85.8454 101 89.2353 99.5083 92 97" stroke="#92400E" stroke-width="4" stroke-linecap="round"/>
  <path d="M46 160C50.9108 133.39 64.8386 120 82 120C99.1614 120 113.089 133.39 118 160H46Z" fill="#0EA5E9"/>
  <path d="M66 122H98L91 160H73L66 122Z" fill="#F8FAFC"/>
</svg>
