<svg width="160" height="160" viewBox="0 0 160 160" fill="none" xmlns="http://www.w3.org/2000/svg">
  <rect width="160" height="160" rx="80" fill="#EDE9FE"/>
  <circle cx="80" cy="84" r="33" fill="#F2C19B"/>
  <path d="M45 71C45 44.4903 66.4903 23 93 23C108.457 23 122.205 30.3099 130.989 41.6679C124.444 39.9407 116.569 39 108 39C79.8335 39 59.1595 49.1541 45.3581 59.798C45.1211 63.4673 45 67.1691 45 71Z" fill="#312E81"/>
  <path d="M53 70C60.8046 68.5442 69.1133 65.8061 77.1965 61.7395C85.6847 72.3352 97.2752 79 110 79V84C110 102.225 95.2254 117 77 117C58.7746 117 44 102.225 44 84V78C47.0713 75.5815 50.0947 72.9118 53 70Z" fill="#F2C19B"/>
  <circle cx="66" cy="86" r="4" fill="#1E293B"/>
  <circle cx="89" cy="86" r="4" fill="#1E293B"/>
  <path d="M67 99C69.7647 101.508 73.1546 103 77 103C80.8454 103 84.2353 101.508 87 99" stroke="#9A3412" stroke-width="4" stroke-linecap="round"/>
  <path d="M35 160C41.2464 132.789 57.3644 119 77 119C96.6356 119 112.754 132.789 119 160H35Z" fill="#7C3AED"/>
  <path d="M58 121C62.8333 129.667 69.1667 134 77 134C84.8333 134 91.1667 129.667 96 121" stroke="#DDD6FE" stroke-width="4" stroke-linecap="round"/>
</svg>
